<svg xmlns="http://www.w3.org/2000/svg" viewBox="0 0 64 64">
<rect width="64" height="64" rx="12" fill="#1A1A1A"/>
<g transform="translate(12.183,50.455) scale(0.05319,-0.05319)">
<path d="M33.600341796875 708Q59.400146484375 707 101.49981689453125 706.0Q143.5994873046875 705 185.59912109375 705Q234.3990478515625 705 279.198974609375 706.0Q323.9989013671875 707 342.598876953125 707Q436.1983642578125 707 497.498046875 686.39990234375Q558.7977294921875 665.7998046875 589.1975708007812 626.8997802734375Q619.597412109375 587.999755859375 619.597412109375 533Q619.597412109375 498.8001708984375 605.7974853515625 464.2001953125Q591.99755859375 429.6002197265625 558.5977172851562 400.50018310546875Q525.1978759765625 371.400146484375 467.29815673828125 353.7000732421875Q409.3984375 336 320.598876953125 336H224.598876953125V356H310.598876953125Q369.599365234375 356 400.4996337890625 378.5Q431.39990234375 401 442.5 438.5Q453.60009765625 476 453.60009765625 522Q453.60009765625 601 425.69970703125 644.5Q397.79931640625 688 329.598388671875 688Q290.798095703125 688 279.197998046875 671.0Q267.597900390625 654 267.597900390625 602V106Q267.597900390625 70 273.29791259765625 52.0Q278.9979248046875 34 294.99798583984375 28.0Q310.998046875 22 342.59814453125 20V0Q315.998291015625 2 274.8985595703125 2.5Q233.798828125 3 191.59912109375 3Q143.5994873046875 3 101.49981689453125 2.5Q59.400146484375 2 33.600341796875 0V20Q65.8004150390625 22 81.80047607421875 28.0Q97.800537109375 34 103.2005615234375 52.0Q108.6005859375 70 108.6005859375 106V602Q108.6005859375 639 103.2005615234375 656.5Q97.800537109375 674 81.50048828125 680.5Q65.200439453125 687 33.600341796875 688ZM222.59912109375 353Q265.799560546875 351.5999755859375 297.3995361328125 348.79998779296875Q328.99951171875 346 352.99932861328125 343.70001220703125Q376.9991455078125 341.4000244140625 395.59912109375 339.5999755859375Q486.59814453125 332.1998291015625 530.49755859375 301.19989013671875Q574.39697265625 270.199951171875 587.197021484375 208.199951171875L609.797119140625 105Q618.59716796875 65.1998291015625 628.7971801757812 48.99969482421875Q638.9971923828125 32.799560546875 657.997314453125 33.1995849609375Q670.7974853515625 33.599609375 679.5975952148438 39.3997802734375Q688.397705078125 45.199951171875 697.7978515625 56.2001953125L711.597900390625 44.000244140625Q684.59814453125 13.000244140625 653.698486328125 -0.4998779296875Q622.798828125 -14 578.7989501953125 -14Q524.9996337890625 -14 489.7999267578125 8.89996337890625Q454.6002197265625 31.7999267578125 443.60009765625 94L425.7999267578125 194Q418.599853515625 235.800048828125 408.59979248046875 267.60003662109375Q398.5997314453125 299.4000244140625 381.39959716796875 317.70001220703125Q364.199462890625 336 332.59912109375 336H224.59912109375Z" fill="#C9A961"/>
</g>
</svg>